<svg width="24" height="24" viewBox="0 0 24 24" fill="none" xmlns="http://www.w3.org/2000/svg">
<g clip-path="url(#clip0_29307_19745)">
<path d="M20.4701 7.99574L13.989 2.95942C13.4202 2.51736 12.7202 2.27734 11.9996 2.27734C11.279 2.27734 10.5789 2.51736 10.0102 2.95942L3.52786 7.99574C3.1383 8.29841 2.82312 8.68603 2.60639 9.12898C2.38966 9.57193 2.27711 10.0585 2.27734 10.5515V19.2935C2.27734 19.9375 2.53342 20.5552 2.98924 21.0106C3.44505 21.466 4.06328 21.7218 4.7079 21.7218H19.2912C19.9359 21.7218 20.5541 21.466 21.0099 21.0106C21.4657 20.5552 21.7218 19.9375 21.7218 19.2935V10.5515C21.7218 9.55229 21.26 8.60889 20.4701 7.99574Z" fill="white" stroke="white" stroke-width="2" stroke-linecap="round" stroke-linejoin="round"/>
<path d="M15.8872 14.9141C13.7385 16.21 10.256 16.21 8.10938 14.9141" stroke="black" stroke-width="2" stroke-linecap="round" stroke-linejoin="round"/>
</g>
<defs>
<clipPath id="clip0_29307_19745">
<rect width="23.3333" height="23.3333" fill="white" transform="translate(0.332031 0.332031)"/>
</clipPath>
</defs>
</svg>
