<svg width="16" height="16" viewBox="0 0 16 16" fill="none" xmlns="http://www.w3.org/2000/svg">
<path fill-rule="evenodd" clip-rule="evenodd" d="M4.0001 1.60156C4.21227 1.60156 4.41575 1.68585 4.56578 1.83588C4.71581 1.98591 4.8001 2.18939 4.8001 2.40156V3.20156H5.6001C5.81227 3.20156 6.01575 3.28585 6.16578 3.43588C6.31581 3.58591 6.4001 3.78939 6.4001 4.00156C6.4001 4.21374 6.31581 4.41722 6.16578 4.56725C6.01575 4.71728 5.81227 4.80156 5.6001 4.80156H4.8001V5.60156C4.8001 5.81374 4.71581 6.01722 4.56578 6.16725C4.41575 6.31728 4.21227 6.40156 4.0001 6.40156C3.78792 6.40156 3.58444 6.31728 3.43441 6.16725C3.28438 6.01722 3.2001 5.81374 3.2001 5.60156V4.80156H2.4001C2.18792 4.80156 1.98444 4.71728 1.83441 4.56725C1.68438 4.41722 1.6001 4.21374 1.6001 4.00156C1.6001 3.78939 1.68438 3.58591 1.83441 3.43588C1.98444 3.28585 2.18792 3.20156 2.4001 3.20156H3.2001V2.40156C3.2001 2.18939 3.28438 1.98591 3.43441 1.83588C3.58444 1.68585 3.78792 1.60156 4.0001 1.60156ZM4.0001 9.60156C4.21227 9.60156 4.41575 9.68585 4.56578 9.83588C4.71581 9.98591 4.8001 10.1894 4.8001 10.4016V11.2016H5.6001C5.81227 11.2016 6.01575 11.2858 6.16578 11.4359C6.31581 11.5859 6.4001 11.7894 6.4001 12.0016C6.4001 12.2137 6.31581 12.4172 6.16578 12.5672C6.01575 12.7173 5.81227 12.8016 5.6001 12.8016H4.8001V13.6016C4.8001 13.8137 4.71581 14.0172 4.56578 14.1672C4.41575 14.3173 4.21227 14.4016 4.0001 14.4016C3.78792 14.4016 3.58444 14.3173 3.43441 14.1672C3.28438 14.0172 3.2001 13.8137 3.2001 13.6016V12.8016H2.4001C2.18792 12.8016 1.98444 12.7173 1.83441 12.5672C1.68438 12.4172 1.6001 12.2137 1.6001 12.0016C1.6001 11.7894 1.68438 11.5859 1.83441 11.4359C1.98444 11.2858 2.18792 11.2016 2.4001 11.2016H3.2001V10.4016C3.2001 10.1894 3.28438 9.98591 3.43441 9.83588C3.58444 9.68585 3.78792 9.60156 4.0001 9.60156ZM9.6001 1.60156C9.77665 1.60151 9.94826 1.65985 10.0882 1.76751C10.2281 1.87517 10.3285 2.02609 10.3737 2.19676L11.3169 5.76156L14.0001 7.30876C14.1217 7.37898 14.2227 7.47997 14.2929 7.60158C14.3631 7.72319 14.4001 7.86114 14.4001 8.00156C14.4001 8.14198 14.3631 8.27993 14.2929 8.40154C14.2227 8.52316 14.1217 8.62415 14.0001 8.69436L11.3169 10.2424L10.3729 13.8064C10.3276 13.9769 10.2273 14.1276 10.0874 14.2352C9.94758 14.3427 9.77611 14.401 9.5997 14.401C9.42329 14.401 9.25182 14.3427 9.11198 14.2352C8.97214 14.1276 8.87178 13.9769 8.8265 13.8064L7.8833 10.2416L5.2001 8.69436C5.07849 8.62415 4.97751 8.52316 4.9073 8.40154C4.83709 8.27993 4.80013 8.14198 4.80013 8.00156C4.80013 7.86114 4.83709 7.72319 4.9073 7.60158C4.97751 7.47997 5.07849 7.37898 5.2001 7.30876L7.8833 5.76076L8.8273 2.19676C8.87246 2.02623 8.97272 1.8754 9.11249 1.76776C9.25226 1.66011 9.42368 1.60168 9.6001 1.60156Z" fill="white"/>
</svg>
