<svg width="20" height="16" viewBox="0 0 20 16" fill="none" xmlns="http://www.w3.org/2000/svg">
<mask id="mask0_29554_6342" style="mask-type:alpha" maskUnits="userSpaceOnUse" x="0" y="0" width="20" height="16">
<rect width="20" height="16" rx="2" fill="white"/>
</mask>
<g mask="url(#mask0_29554_6342)">
<path fill-rule="evenodd" clip-rule="evenodd" d="M0 0H20V16H0V0Z" fill="#EAF9EE"/>
<path fill-rule="evenodd" clip-rule="evenodd" d="M0 9.77734V11.1107H20V9.77734H0Z" fill="#E31D1C"/>
<path fill-rule="evenodd" clip-rule="evenodd" d="M0 12.2227V13.556H20V12.2227H0Z" fill="#E31D1C"/>
<path fill-rule="evenodd" clip-rule="evenodd" d="M0 4.89062V6.22396H20V4.89062H0Z" fill="#E31D1C"/>
<path fill-rule="evenodd" clip-rule="evenodd" d="M0 14.668V16.0013H20V14.668H0Z" fill="#E31D1C"/>
<path fill-rule="evenodd" clip-rule="evenodd" d="M0 7.33203V8.66537H20V7.33203H0Z" fill="#E31D1C"/>
<path fill-rule="evenodd" clip-rule="evenodd" d="M0 0V1.33333H20V0H0Z" fill="#E31D1C"/>
<path fill-rule="evenodd" clip-rule="evenodd" d="M0 2.44531V3.77865H20V2.44531H0Z" fill="#E31D1C"/>
<rect width="12.5" height="8.66667" fill="#2E42A5"/>
<path fill-rule="evenodd" clip-rule="evenodd" d="M1.07602 1.96011L0.622341 2.29937L0.775506 1.69563L0.372559 1.31302H0.898863L1.07538 0.820312L1.28236 1.31302H1.73102L1.3785 1.69563L1.51498 2.29937L1.07602 1.96011ZM3.57601 1.96011L3.12234 2.29937L3.2755 1.69563L2.87255 1.31302H3.39886L3.57538 0.820312L3.78236 1.31302H4.23102L3.8785 1.69563L4.01497 2.29937L3.57601 1.96011ZM5.62233 2.29937L6.07601 1.96011L6.51497 2.29937L6.37849 1.69563L6.73102 1.31302H6.28236L6.07537 0.820312L5.89886 1.31302H5.37255L5.7755 1.69563L5.62233 2.29937ZM8.57602 1.96011L8.12235 2.29937L8.27551 1.69563L7.87257 1.31302H8.39887L8.57539 0.820312L8.78237 1.31302H9.23103L8.87851 1.69563L9.01498 2.29937L8.57602 1.96011ZM0.622341 4.96591L1.07602 4.62665L1.51498 4.96591L1.3785 4.36217L1.73102 3.97956H1.28236L1.07538 3.48685L0.898863 3.97956H0.372559L0.775506 4.36217L0.622341 4.96591ZM3.57601 4.62665L3.12234 4.96591L3.2755 4.36217L2.87255 3.97956H3.39886L3.57538 3.48685L3.78236 3.97956H4.23102L3.8785 4.36217L4.01497 4.96591L3.57601 4.62665ZM5.62233 4.96591L6.07601 4.62665L6.51497 4.96591L6.37849 4.36217L6.73102 3.97956H6.28236L6.07537 3.48685L5.89886 3.97956H5.37255L5.7755 4.36217L5.62233 4.96591ZM8.57602 4.62665L8.12235 4.96591L8.27551 4.36217L7.87257 3.97956H8.39887L8.57539 3.48685L8.78237 3.97956H9.23103L8.87851 4.36217L9.01498 4.96591L8.57602 4.62665ZM0.622341 7.63284L1.07602 7.29358L1.51498 7.63284L1.3785 7.0291L1.73102 6.64649H1.28236L1.07538 6.15378L0.898863 6.64649H0.372559L0.775506 7.0291L0.622341 7.63284ZM3.57601 7.29358L3.12234 7.63284L3.2755 7.0291L2.87255 6.64649H3.39886L3.57538 6.15378L3.78236 6.64649H4.23102L3.8785 7.0291L4.01497 7.63284L3.57601 7.29358ZM5.62233 7.63284L6.07601 7.29358L6.51497 7.63284L6.37849 7.0291L6.73102 6.64649H6.28236L6.07537 6.15378L5.89886 6.64649H5.37255L5.7755 7.0291L5.62233 7.63284ZM8.57602 7.29358L8.12235 7.63284L8.27551 7.0291L7.87257 6.64649H8.39887L8.57539 6.15378L8.78237 6.64649H9.23103L8.87851 7.0291L9.01498 7.63284L8.57602 7.29358ZM10.6223 2.29937L11.076 1.96011L11.515 2.29937L11.3785 1.69563L11.731 1.31302H11.2824L11.0754 0.820312L10.8989 1.31302H10.3726L10.7755 1.69563L10.6223 2.29937ZM11.076 4.62665L10.6223 4.96591L10.7755 4.36217L10.3726 3.97956H10.8989L11.0754 3.48685L11.2824 3.97956H11.731L11.3785 4.36217L11.515 4.96591L11.076 4.62665ZM10.6223 7.63284L11.076 7.29358L11.515 7.63284L11.3785 7.0291L11.731 6.64649H11.2824L11.0754 6.15378L10.8989 6.64649H10.3726L10.7755 7.0291L10.6223 7.63284ZM2.32602 3.29358L1.87235 3.63284L2.02551 3.0291L1.62257 2.64649H2.14887L2.32539 2.15378L2.53237 2.64649H2.98103L2.62851 3.0291L2.76499 3.63284L2.32602 3.29358ZM4.37234 3.63284L4.82602 3.29358L5.26498 3.63284L5.12851 3.0291L5.48103 2.64649H5.03237L4.82539 2.15378L4.64887 2.64649H4.12256L4.52551 3.0291L4.37234 3.63284ZM7.32601 3.29358L6.87234 3.63284L7.02551 3.0291L6.62256 2.64649H7.14886L7.32538 2.15378L7.53236 2.64649H7.98102L7.6285 3.0291L7.76498 3.63284L7.32601 3.29358ZM1.87235 6.29937L2.32602 5.96011L2.76499 6.29937L2.62851 5.69563L2.98103 5.31302H2.53237L2.32539 4.82031L2.14887 5.31302H1.62257L2.02551 5.69563L1.87235 6.29937ZM4.82602 5.96011L4.37234 6.29937L4.52551 5.69563L4.12256 5.31302H4.64887L4.82539 4.82031L5.03237 5.31302H5.48103L5.12851 5.69563L5.26498 6.29937L4.82602 5.96011ZM6.87234 6.29937L7.32601 5.96011L7.76498 6.29937L7.6285 5.69563L7.98102 5.31302H7.53236L7.32538 4.82031L7.14886 5.31302H6.62256L7.02551 5.69563L6.87234 6.29937ZM9.82601 3.29358L9.37234 3.63284L9.5255 3.0291L9.12255 2.64649H9.64886L9.82538 2.15378L10.0324 2.64649H10.481L10.1285 3.0291L10.265 3.63284L9.82601 3.29358ZM9.37234 6.29937L9.82601 5.96011L10.265 6.29937L10.1285 5.69563L10.481 5.31302H10.0324L9.82538 4.82031L9.64886 5.31302H9.12255L9.5255 5.69563L9.37234 6.29937Z" fill="#EAF9EE"/>
</g>
</svg>
